# AST/ASF file generated using VICON BodyLanguage
# -----------------------------------------------
:version 1.10
:name VICON
:units
  mass 1.0
  length 0.45
  angle deg
:documentation
   .ast/.asf automatically generated from VICON data using
   VICON BodyBuilder and BodyLanguage model FoxedUp or BRILLIANT.MOD
:root
   order TX TY TZ RX RY RZ
   axis XYZ
   position 0 0 0  
   orientation 0 0 0 
:bonedata
  begin
     id 1 
     name lhipjoint
     direction 0.682418 -0.694059 0.22932 
     length 2.25561 
     axis 0 0 0  XYZ
  end
  begin
     id 2 
     name lfemur
     direction 0.34202 -0.939693 0  
     length 6.96448  
     axis 0 0 20  XYZ
    dof rx ry rz
    limits (-160.0 20.0)
           (-70.0 70.0)
           (-60.0 70.0)
  end
  begin
     id 3 
     name ltibia
     direction 0.34202 -0.939693 0   
     length 6.88553   
     axis 0 0 20   XYZ
    dof rx
    limits (-10.0 170.0)
  end
  begin
     id 4 
     name lfoot
     direction 0.0723587 -0.198804 0.977364   
     length 1.88518   
     axis -90 7.62852e-016 20   XYZ
    dof rx rz
    limits (-45.0 90.0)
           (-70.0 20.0)
  end
  begin
     id 5 
     name ltoes
     direction 1.53558e-011 -4.21962e-011 1   
     length 0.952124   
     axis -90 7.62852e-016 20   XYZ
    dof rx
    limits (-90.0 20.0)
  end
  begin
     id 6 
     name rhipjoint
     direction -0.657603 -0.71533 0.236348   
     length 2.18854  
     axis 0 0 0  XYZ 
  end
  begin
     id 7 
     name rfemur
     direction -0.34202 -0.939693 0   
     length 6.86686   
     axis 0 0 -20   XYZ
    dof rx ry rz
    limits (-160.0 20.0)
           (-70.0 70.0)
           (-70.0 60.0)
  end
  begin
     id 8 
     name rtibia
     direction -0.34202 -0.939693 0   
     length 6.59503   
     axis 0 0 -20   XYZ
    dof rx
    limits (-10.0 170.0)
 end
 begin
     id 9 
     name rfoot
     direction -0.101977 -0.280179 0.954516   
     length 1.93723  
     axis -90 -7.62852e-016 -20   XYZ
    dof rx rz
    limits (-45.0 90.0)
           (-20.0 70.0)
  end
  begin
     id 10 
     name rtoes
     direction -1.53564e-011 -4.21897e-011 1   
     length 0.970315   
     axis -90 -7.62852e-016 -20   XYZ
    dof rx
    limits (-90.0 20.0)
  end
  begin
     id 11 
     name lowerback
     direction -0.0339559 0.999421 -0.00235966   
     length 1.88543   
     axis 0 0 0   XYZ
    dof rx ry rz
    limits (-20.0 45.0)
           (-30.0 30.0)
           (-30.0 30.0)
  end
  begin
     id 12 
     name upperback
     direction 0.00401003 0.999739 0.0224689   
     length 1.8856   
     axis 0 0 0   XYZ
    dof rx ry rz
    limits (-20.0 45.0)
           (-30.0 30.0)
           (-30.0 30.0)
  end
  begin
     id 13 
     name thorax
     direction 0.0198619 0.999546 0.0226536   
     length 1.88352   
     axis 0 0 0   XYZ
    dof rx ry rz
    limits (-20.0 45.0)
           (-30.0 30.0)
           (-30.0 30.0)
  end
  begin
     id 14 
     name lowerneck
     direction -0.0461848 0.998632 0.0245198   
     length 1.34895   
     axis 0 0 0   XYZ
    dof rx ry rz
    limits (-20.0 45.0)
           (-30.0 30.0)
           (-30.0 30.0)
  end
  begin
     id 15 
     name upperneck
     direction -0.0180627 0.994724 -0.100984   
     length 1.35214   
     axis 0 0 0   XYZ
    dof rx ry rz
    limits (-20.0 45.0)
           (-30.0 30.0)
           (-30.0 30.0)
  end
  begin
     id 16
     name head
     direction -0.00374772 0.999293 -0.037403  
     length 1.3568  
     axis 0 0 0   XYZ
    dof rx ry rz
    limits (-20.0 45.0)
           (-30.0 30.0)
           (-30.0 30.0)
  end
  begin
     id 17 
     name lclavicle
     direction 0.971773 0.191119 0.138311  
     length 2.84954  
     axis 0 0 0   XYZ
    dof ry rz
    limits (-20.0 10.0)
           (0.0 20.0)
  end
  begin
     id 18 
     name lhumerus
     direction 1 -4.4897e-011 -2.43761e-027   
     length 4.40919   
     axis 180 -30 -90   XYZ
    dof rx ry rz
    limits (-60.0 90.0)
           (-90.0 90.0)
           (-90.0 90.0)
  end
  begin
     id 19
     name lradius
     direction 1 -4.4896e-011 -9.1621e-027   
     length 3.03857   
     axis 180 -30 -90   XYZ
    dof rx
    limits (-10.0 170.0)
  end
  begin
     id 20
     name lwrist
     direction 1 -4.4896e-011 -1.41363e-026   
     length 1.51928   
     axis 1.07133e-014 90 90   XYZ
    dof ry
    limits (-180.0 0.0)
 end
  begin
     id 21 
     name lhand
     direction 1 -4.48978e-011 -2.82725e-026   
     length 0.523208   
     axis 1.80403e-014 90 90   XYZ
    dof rx rz
    limits (-90.0 90.0)
           (-45.0 45.0)
  end
  begin
     id 22 
     name lfingers
     direction 1 -4.48977e-011 -5.6545e-026   
     length 0.421824   
     axis 3.60806e-014 90 90   XYZ
    dof rx
    limits (0.0 90.0)
  end
  begin
     id 23
     name lthumb
     direction 0.707107 -6.34962e-011 0.707107   
     length 0.605657   
     axis -90 45 2.85299e-015   XYZ
    dof rx rz
    limits (-45.0 45.0)
           (-45.0 45.0)
  end
  begin
     id 24 
     name rclavicle
     direction -0.957247 0.24311 0.156766   
     length 3.12406  
     axis 0 0 0   XYZ 
    dof ry rz
    limits (-10.0 20.0)
           (-20.0 0.0)
  end
  begin
     id 25 
     name rhumerus
     direction -1 -4.48964e-011 -1.70632e-027  
     length 4.61969   
     axis 180 30 90   XYZ
    dof rx ry rz
    limits (-90.0 60.0)
           (-90.0 90.0)
           (-90.0 90.0)
  end
  begin
     id 26 
     name rradius
     direction -1 -4.48966e-011 -6.60395e-027   
     length 3.09382   
     axis 180 30 90   XYZ
    dof rx
    limits (-10.0 170.0)
  end
  begin
     id 27 
     name rwrist
     direction -1 -4.48963e-011 -1.41363e-026   
     length 1.54691   
     axis 1.07133e-014 -90 -90   XYZ
    dof ry
    limits (-180.0 0.0)
  end
  begin
     id 28
     name rhand
     direction -1 -4.49013e-011 -2.82725e-026   
     length 0.500896   
     axis 1.80403e-014 -90 -90   XYZ
    dof rx rz
    limits (-90.0 90.0)
           (-45.0 45.0)
  end
  begin
     id 29
     name rfingers
     direction -1 -4.48902e-011 -5.6545e-026   
     length 0.403835   
     axis 3.60806e-014 -90 -90   XYZ
    dof rx
    limits (0.0 90.0)
  end
  begin
     id 30
     name rthumb
     direction -0.707107 -6.34953e-011 0.707107   
     length 0.579829   
     axis -90 -45 -2.85299e-015   XYZ
    dof rx rz
    limits (-45.0 45.0)
           (-45.0 45.0)
  end
:hierarchy
  begin
    root lhipjoint rhipjoint lowerback
    lhipjoint lfemur
    lfemur ltibia
    ltibia lfoot
    lfoot ltoes
    rhipjoint rfemur
    rfemur rtibia
    rtibia rfoot
    rfoot rtoes
    lowerback upperback
    upperback thorax
    thorax lowerneck lclavicle rclavicle
    lowerneck upperneck
    upperneck head
    lclavicle lhumerus
    lhumerus lradius
    lradius lwrist
    lwrist lhand lthumb
    lhand lfingers
    rclavicle rhumerus
    rhumerus rradius
    rradius rwrist
    rwrist rhand rthumb
    rhand rfingers
  end

#!OML:ASF E:\madness\Project 1\Capture day 1\Session 1\Female1.ASF
:FULLY-SPECIFIED
:DEGREES
146
root 15.9373 16.0884 -1.78109 -144.764 -85.5434 151.138
lowerback -5.83829 -0.450116 -4.62828
upperback -5.65442 -0.603422 0.732388
thorax -2.53099 -0.209456 3.33475
lowerneck -1.0437 -2.5042 -1.92742
upperneck 9.46646 -3.03145 -5.14815
head 3.16723 -1.83036 -1.4374
rclavicle -1.08338e-014 -2.78299e-015
rhumerus -45.1771 -4.31906 -81.5112
rradius 27.8212
rwrist 11.2542
rhand -8.22789 -48.3766
rfingers 7.12502
rthumb 17.6896 -77.592
lclavicle -1.08338e-014 -2.78299e-015
lhumerus -48.8821 18.8476 74.8796
lradius 31.0692
lwrist -22.5636
lhand -19.166 -16.8075
lfingers 7.12502
lthumb 7.14495 13.0519
rfemur -12.7171 21.4754 13.5906
rtibia 23.8912
rfoot -19.3233 -15.1997
rtoes 5.82172
lfemur -10.1548 -24.1804 -21.4042
ltibia 24.5223
lfoot -13.7695 29.0502
ltoes 15.5108
147
root 15.9345 16.0869 -1.7827 -144.587 -85.6071 150.904
lowerback -5.72121 -0.470227 -4.6189
upperback -5.69647 -0.638096 0.73039
thorax -2.637 -0.224118 3.32748
lowerneck -1.25418 -2.30515 -1.76376
upperneck 9.6931 -2.75016 -5.20729
head 3.28781 -1.69597 -1.487
rclavicle 2.98177e-015 1.78906e-015
rhumerus -45.2214 -4.33521 -81.4888
rradius 27.7384
rwrist 11.2064
rhand -8.16055 -48.3696
rfingers 7.12502
rthumb 17.7543 -77.5791
lclavicle 2.98177e-015 1.78906e-015
lhumerus -48.9697 18.8104 74.806
lradius 31.0437
lwrist -22.4782
lhand -19.3275 -16.8797
lfingers 7.12502
lthumb 6.98902 12.9849
rfemur -12.609 21.5649 13.6502
rtibia 23.8868
rfoot -19.4136 -15.2897
rtoes 6.1496
lfemur -10.0805 -24.2632 -21.404
ltibia 24.5293
lfoot -13.665 29.0967
ltoes 15.3077
148
root 15.9331 16.0869 -1.78217 -144.874 -85.6057 151.229
lowerback -5.79008 -0.45609 -4.6299
upperback -5.6795 -0.614531 0.754357
thorax -2.58292 -0.213031 3.35867
lowerneck -0.954672 -2.10846 -1.80316
upperneck 9.3329 -2.51892 -5.01648
head 3.11385 -1.56118 -1.39604
rclavicle 8.12532e-015 -7.55382e-015
rhumerus -45.0857 -4.34791 -81.415
rradius 27.5722
rwrist 11.277
rhand -7.74944 -48.4794
rfingers 7.12502
rthumb 18.1499 -77.6526
lclavicle 8.12532e-015 -7.55382e-015
lhumerus -48.8635 18.8755 74.7851
lradius 30.8987
lwrist -22.5549
lhand -19.475 -17.2096
lfingers 7.12502
lthumb 6.8466 12.6597
rfemur -12.6306 21.6147 13.6513
rtibia 23.8472
rfoot -19.4018 -15.3102
rtoes 6.30045
lfemur -10.1352 -24.2467 -21.3657
ltibia 24.5537
lfoot -13.7893 29.0746
ltoes 15.5144
149
root 15.9327 16.0891 -1.78082 -144.586 -85.6486 151.01
lowerback -5.85944 -0.449487 -4.62185
upperback -5.688 -0.603962 0.746087
thorax -2.55426 -0.209199 3.34543
lowerneck -0.525382 -1.90458 -1.76647
upperneck 8.90099 -2.28472 -4.86729
head 2.89112 -1.42114 -1.33004
rclavicle 1.39895e-014 1.78906e-015
rhumerus -45.0538 -4.32005 -81.4318
rradius 27.5194
rwrist 11.2878
rhand -7.22234 -48.849
rfingers 7.12502
rthumb 18.657 -77.9743
lclavicle 1.39895e-014 1.78906e-015
lhumerus -48.7659 18.953 74.6984
lradius 30.7117
lwrist -22.7494
lhand -19.4891 -17.2521
lfingers 7.12502
lthumb 6.83302 12.6176
rfemur -12.6594 21.5884 13.6276
rtibia 23.7841
rfoot -19.3751 -15.3037
rtoes 6.63159
lfemur -10.2426 -24.0352 -21.3263
ltibia 24.5854
lfoot -13.6763 28.8956
ltoes 14.8881
150
root 15.9315 16.0936 -1.78027 -144.253 -85.7075 150.697
lowerback -5.8588 -0.446905 -4.59805
upperback -5.70613 -0.602831 0.730569
thorax -2.57378 -0.209281 3.31611
lowerneck -0.749609 -1.77127 -1.60528
upperneck 9.14244 -2.08761 -4.974
head 3.0166 -1.33067 -1.39659
rclavicle 1.06598e-014 -4.17448e-015
rhumerus -45.0805 -4.45608 -81.3457
rradius 27.4297
rwrist 11.4037
rhand -7.05618 -49.128
rfingers 7.12502
rthumb 18.8168 -78.2379
lclavicle 1.06598e-014 -4.17448e-015
lhumerus -48.7505 18.9202 74.6596
lradius 30.6341
lwrist -22.7555
lhand -19.5408 -17.1627
lfingers 7.12502
lthumb 6.78311 12.7087
rfemur -12.6383 21.5441 13.6343
rtibia 23.7443
rfoot -19.3664 -15.2951
rtoes 6.86122
lfemur -10.2642 -23.5442 -21.3126
ltibia 24.5998
lfoot -13.4601 28.4928
ltoes 13.8791
151
root 15.9311 16.0958 -1.77957 -144.596 -85.6965 151.04
lowerback -5.86823 -0.398213 -4.59371
upperback -5.70366 -0.537535 0.730501
thorax -2.57194 -0.176762 3.31592
lowerneck -1.05706 -1.69892 -1.47634
upperneck 9.39086 -1.96756 -5.07962
head 3.16025 -1.28026 -1.46093
rclavicle 2.21645e-014 -1.25234e-014
rhumerus -45.1281 -4.76998 -81.075
rradius 27.3711
rwrist 11.863
rhand -6.45426 -49.6209
rfingers 7.12502
rthumb 19.3956 -78.6735
lclavicle 2.21645e-014 -1.25234e-014
lhumerus -48.6812 18.8959 74.6632
lradius 30.5641
lwrist -22.836
lhand -19.5496 -17.0881
lfingers 7.12502
lthumb 6.77462 12.7835
rfemur -12.6352 21.5212 13.6446
rtibia 23.7051
rfoot -19.3242 -15.334
rtoes 6.32884
lfemur -10.2518 -23.3224 -21.3071
ltibia 24.6093
lfoot -13.5123 28.2368
ltoes 14.1816
152
root 15.9317 16.0928 -1.77909 -144.58 -85.7065 151.047
lowerback -5.90368 -0.384305 -4.62429
upperback -5.68566 -0.514909 0.746839
thorax -2.53546 -0.165028 3.35056
lowerneck -1.03505 -1.56782 -1.54892
upperneck 9.27784 -1.80405 -4.89417
head 3.12211 -1.1904 -1.37982
rclavicle -7.60351e-015 7.95139e-015
rhumerus -45.1293 -4.86407 -80.9476
rradius 27.4528
rwrist 12.0865
rhand -5.65686 -50.3271
rfingers 7.12502
rthumb 20.1622 -79.3008
lclavicle -7.60351e-015 7.95139e-015
lhumerus -48.6403 18.8025 74.7582
lradius 30.6723
lwrist -22.7142
lhand -19.3716 -16.9293
lfingers 7.12502
lthumb 6.94644 12.9367
rfemur -12.6345 21.4124 13.6421
rtibia 23.6251
rfoot -19.2346 -15.3401
rtoes 5.72634
lfemur -10.3259 -23.4584 -21.2689
ltibia 24.6361
lfoot -13.5239 28.2432
ltoes 14.5375
153
root 15.9336 16.0955 -1.77778 -143.167 -85.7797 149.67
lowerback -5.8943 -0.426402 -4.7088
upperback -5.69822 -0.568865 0.758966
thorax -2.54896 -0.188561 3.40887
lowerneck -1.15216 -1.37099 -1.68443
upperneck 9.48099 -1.54296 -4.64263
head 3.22096 -1.06283 -1.27159
rclavicle 8.27441e-015 8.54774e-015
rhumerus -45.151 -4.73058 -81.0025
rradius 27.5394
rwrist 11.8899
rhand -6.20202 -49.8634
rfingers 7.12502
rthumb 19.6381 -78.8915
lclavicle 8.27441e-015 8.54774e-015
lhumerus -48.671 18.6587 74.8653
lradius 30.8686
lwrist -22.517
lhand -19.0001 -16.772
lfingers 7.12502
lthumb 7.30502 13.0819
rfemur -12.6207 21.1464 13.582
rtibia 23.5355
rfoot -19.12 -15.2186
rtoes 5.56069
lfemur -10.4096 -23.0827 -21.2942
ltibia 24.6729
lfoot -13.4293 27.9576
ltoes 13.3794
154
root 15.9358 16.1062 -1.77564 -142.566 -85.8548 149.095
lowerback -5.84368 -0.445919 -4.71938
upperback -5.75321 -0.600027 0.778309
thorax -2.63174 -0.201185 3.4346
lowerneck -1.27102 -1.18592 -1.69061
upperneck 9.79251 -1.28983 -4.55265
head 3.35596 -0.944458 -1.24041
rclavicle -3.97569e-016 8.15017e-015
rhumerus -45.2684 -4.53307 -81.0965
rradius 27.6079
rwrist 11.657
rhand -8.43628 -47.995
rfingers 7.12502
rthumb 17.489 -77.2283
lclavicle -3.97569e-016 8.15017e-015
lhumerus -48.681 18.7143 74.773
lradius 30.7786
lwrist -22.7773
lhand -18.7624 -16.6965
lfingers 7.12502
lthumb 7.5345 13.1493
rfemur -12.6177 20.8829 13.5678
rtibia 23.4466
rfoot -19.0278 -15.0629
rtoes 5.37267
lfemur -10.4288 -22.431 -21.307
ltibia 24.7119
lfoot -13.4323 27.457
ltoes 12.4601
